<?xml version="1.0" encoding="utf-8"?>
<!-- Generator: Adobe Illustrator 16.0.4, SVG Export Plug-In . SVG Version: 6.00 Build 0)  -->
<!DOCTYPE svg PUBLIC "-//W3C//DTD SVG 1.1//EN" "http://www.w3.org/Graphics/SVG/1.1/DTD/svg11.dtd">
<svg version="1.1" id="Layer_1" xmlns="http://www.w3.org/2000/svg" xmlns:xlink="http://www.w3.org/1999/xlink" x="0px" y="0px"
	 width="230px" height="43px" viewBox="0 0 230 43" enable-background="new 0 0 230 43" xml:space="preserve">
<g>
	<circle fill="#00B9E3" cx="7.666" cy="21.5" r="6.702"/>
	<circle fill="#A5CF4C" cx="25.996" cy="21.5" r="6.703"/>
	<circle fill="#FDB933" cx="44.326" cy="21.5" r="6.702"/>
</g>
<g>
	<g>
		<path fill="#77787B" d="M221.673,26.376l0.563-0.752c1.08,0.827,2.276,1.293,3.53,1.293c1.332,0,2.37-0.735,2.37-1.873v-0.036
			c0-1.159-1.233-1.584-2.601-1.968c-1.604-0.463-3.375-0.944-3.375-2.701v-0.038c0-1.582,1.329-2.72,3.237-2.72
			c1.176,0,2.508,0.424,3.494,1.08l-0.504,0.792c-0.905-0.6-1.986-0.984-3.027-0.984c-1.35,0-2.237,0.732-2.237,1.716v0.039
			c0,1.099,1.329,1.505,2.734,1.91c1.585,0.444,3.244,1.021,3.244,2.758v0.034c0,1.76-1.504,2.876-3.394,2.876
			C224.279,27.802,222.72,27.225,221.673,26.376z"/>
		<path fill="#77787B" d="M60.941,26.259v1.351h-2.932V13.532h2.932v5.226c0.713-0.964,1.697-1.676,3.221-1.676
			c2.41,0,4.706,1.889,4.706,5.341v0.039c0,3.453-2.257,5.341-4.706,5.341C62.6,27.802,61.636,27.089,60.941,26.259z M65.937,22.461
			v-0.039c0-1.716-1.158-2.854-2.527-2.854c-1.37,0-2.507,1.138-2.507,2.854v0.039c0,1.716,1.137,2.855,2.507,2.855
			C64.779,25.316,65.937,24.197,65.937,22.461z"/>
		<path fill="#77787B" d="M70.39,13.532h2.933v14.078H70.39V13.532z"/>
		<path fill="#77787B" d="M75.212,23.964v-6.69h2.933v5.768c0,1.389,0.655,2.102,1.774,2.102c1.117,0,1.83-0.713,1.83-2.102v-5.768
			h2.932v10.336h-2.932v-1.468c-0.674,0.872-1.542,1.66-3.027,1.66C76.504,27.802,75.212,26.337,75.212,23.964z"/>
		<path fill="#77787B" d="M86.243,22.5v-0.039c0-2.951,2.103-5.38,5.111-5.38c3.453,0,5.034,2.679,5.034,5.61
			c0,0.232-0.02,0.504-0.039,0.771h-7.193c0.291,1.331,1.215,2.025,2.527,2.025c0.983,0,1.697-0.309,2.507-1.059l1.678,1.484
			c-0.964,1.195-2.354,1.928-4.225,1.928C88.537,27.842,86.243,25.661,86.243,22.5z M93.532,21.632
			c-0.171-1.312-0.943-2.198-2.179-2.198c-1.214,0-2.004,0.867-2.237,2.198H93.532z"/>
		<path fill="#77787B" d="M97.931,29.655l1.002-2.198c1.06,0.598,2.122,0.944,3.49,0.944c2.006,0,2.95-0.964,2.95-2.815v-0.504
			c-0.866,1.042-1.812,1.679-3.374,1.679c-2.412,0-4.591-1.753-4.591-4.819v-0.04c0-3.086,2.219-4.821,4.591-4.821
			c1.601,0,2.545,0.674,3.337,1.541v-1.348h2.931v8.003c0,1.851-0.443,3.201-1.31,4.067c-0.966,0.967-2.45,1.392-4.457,1.392
			C100.822,30.735,99.242,30.346,97.931,29.655z M105.374,21.941v-0.04c0-1.408-1.099-2.392-2.525-2.392
			c-1.427,0-2.508,0.984-2.508,2.392v0.04c0,1.427,1.081,2.39,2.508,2.39C104.275,24.331,105.374,23.348,105.374,21.941z"/>
		<path fill="#77787B" d="M109.984,17.273h2.932v2.083c0.597-1.428,1.557-2.354,3.282-2.276v3.065h-0.153
			c-1.934,0-3.128,1.176-3.128,3.646v3.817h-2.932V17.273z"/>
		<path fill="#77787B" d="M116.448,22.5v-0.039c0-2.951,2.09-5.38,5.098-5.38c3.453,0,5.034,2.679,5.034,5.61
			c0,0.232-0.02,0.504-0.037,0.771h-7.195c0.288,1.331,1.214,2.025,2.524,2.025c0.985,0,1.699-0.309,2.509-1.059l1.678,1.484
			c-0.962,1.195-2.353,1.928-4.223,1.928C118.73,27.842,116.448,25.661,116.448,22.5z M123.726,21.632
			c-0.174-1.312-0.945-2.198-2.18-2.198c-1.215,0-2.005,0.867-2.236,2.198H123.726z"/>
		<path fill="#77787B" d="M127.505,22.5v-0.039c0-2.951,2.103-5.38,5.112-5.38c3.45,0,5.033,2.679,5.033,5.61
			c0,0.232-0.02,0.504-0.038,0.771h-7.194c0.287,1.331,1.215,2.025,2.527,2.025c0.982,0,1.694-0.309,2.506-1.059l1.678,1.484
			c-0.964,1.195-2.354,1.928-4.224,1.928C129.8,27.842,127.505,25.661,127.505,22.5z M134.796,21.632
			c-0.174-1.312-0.943-2.198-2.179-2.198c-1.216,0-2.008,0.867-2.238,2.198H134.796z"/>
		<path fill="#77787B" d="M138.421,17.273h2.933v1.465c0.674-0.867,1.542-1.657,3.027-1.657c2.218,0,3.51,1.465,3.51,3.836v6.692
			h-2.931v-5.766c0-1.389-0.658-2.102-1.775-2.102s-1.831,0.713-1.831,2.102v5.766h-2.933V17.273z"/>
		<path fill="#77787B" d="M149.087,17.774h1.099l3.722,8.775l3.761-8.775h1.062l-4.418,9.912h-0.81L149.087,17.774z"/>
		<path fill="#77787B" d="M158.863,24.755v-0.039c0-2.043,1.753-3.2,4.302-3.2c1.37,0,2.312,0.173,3.257,0.426v-0.426
			c0-1.986-1.212-3.008-3.239-3.008c-1.194,0-2.178,0.327-3.084,0.79l-0.348-0.828c1.079-0.502,2.142-0.849,3.489-0.849
			c1.331,0,2.393,0.366,3.106,1.08c0.655,0.657,1.004,1.562,1.004,2.776v6.133h-0.929v-1.638c-0.672,0.945-1.887,1.87-3.761,1.87
			C160.83,27.842,158.863,26.799,158.863,24.755z M166.443,23.926v-1.117c-0.831-0.213-1.927-0.445-3.336-0.445
			c-2.085,0-3.239,0.927-3.239,2.296v0.038c0,1.426,1.347,2.257,2.852,2.257C164.728,26.955,166.443,25.72,166.443,23.926z"/>
		<path fill="#77787B" d="M168.834,22.731v-0.04c0-2.757,2.198-5.148,5.015-5.148c1.851,0,3.009,0.849,3.936,1.814l-0.676,0.692
			c-0.849-0.865-1.813-1.619-3.277-1.619c-2.238,0-3.975,1.871-3.975,4.225v0.037c0,2.372,1.794,4.264,4.05,4.264
			c1.389,0,2.469-0.715,3.3-1.639l0.653,0.578c-1.002,1.137-2.198,1.947-4.011,1.947C171.015,27.842,168.834,25.488,168.834,22.731z
			"/>
		<path fill="#77787B" d="M178.786,24.755v-0.039c0-2.043,1.755-3.2,4.3-3.2c1.372,0,2.315,0.173,3.262,0.426v-0.426
			c0-1.986-1.217-3.008-3.242-3.008c-1.196,0-2.178,0.327-3.089,0.79l-0.345-0.828c1.08-0.502,2.142-0.849,3.489-0.849
			c1.334,0,2.393,0.366,3.106,1.08c0.655,0.657,1.004,1.562,1.004,2.776v6.133h-0.924v-1.638c-0.677,0.945-1.89,1.87-3.763,1.87
			C180.752,27.842,178.786,26.799,178.786,24.755z M186.366,23.926v-1.117c-0.83-0.213-1.931-0.445-3.336-0.445
			c-2.084,0-3.241,0.927-3.241,2.296v0.038c0,1.426,1.35,2.257,2.854,2.257C184.647,26.955,186.366,25.72,186.366,23.926z"/>
		<path fill="#77787B" d="M190.28,25.082v-6.439h-1.427v-0.868h1.427V14.63h0.948v3.144h3.45v0.868h-3.45v6.345
			c0,1.408,0.826,1.909,1.963,1.909c0.484,0,0.887-0.098,1.446-0.347v0.888c-0.5,0.229-0.984,0.347-1.6,0.347
			C191.514,27.784,190.28,26.955,190.28,25.082z"/>
		<path fill="#77787B" d="M196.74,13.917h1.178v1.292h-1.178V13.917z M196.856,17.774h0.942v9.835h-0.942V17.774z"/>
		<path fill="#77787B" d="M199.942,22.731v-0.04c0-2.757,2.14-5.148,5.072-5.148c2.913,0,5.031,2.353,5.031,5.111v0.037
			c0,2.757-2.139,5.15-5.069,5.15C202.065,27.842,199.942,25.488,199.942,22.731z M209.025,22.731v-0.04
			c0-2.372-1.775-4.262-4.049-4.262c-2.336,0-4.012,1.911-4.012,4.225v0.037c0,2.372,1.773,4.264,4.05,4.264
			C207.347,26.955,209.025,25.044,209.025,22.731z"/>
		<path fill="#77787B" d="M211.804,17.774h0.942v1.833c0.659-1.158,1.758-2.064,3.548-2.064c2.49,0,3.934,1.698,3.934,4.051v6.016
			h-0.94v-5.843c0-2.025-1.142-3.356-3.125-3.356c-1.929,0-3.416,1.466-3.416,3.511v5.688h-0.942V17.774z"/>
	</g>
</g>
</svg>
